<svg width="138" height="45" viewBox="0 0 138 45" fill="none" xmlns="http://www.w3.org/2000/svg">
<g filter="url(#filter0_d_2040_1866)">
<mask id="mask0_2040_1866" style="mask-type:luminance" maskUnits="userSpaceOnUse" x="13" y="11" width="113" height="20">
<path d="M126 11H13V31H126V11Z" fill="white"/>
</mask>
<g mask="url(#mask0_2040_1866)">
<path d="M21.8581 15.6842C19.1113 15.6842 17.5596 16.5687 16.0455 17.6801V11.7418C16.0455 11.189 15.5988 10.738 15.0477 10.738H13.2639V27.6132L13 30.5402H14.2356C14.2588 30.5431 14.6475 30.5431 14.6475 30.5431C15.3842 30.5431 15.5495 30.0456 15.6452 29.5859L15.8773 28.6839C17.5538 30.0252 19.0562 30.9621 22.1249 30.9621C27.9491 30.9621 30.0636 26.4669 30.0636 23.4439C30.0607 20.5576 28.332 15.6842 21.8581 15.6842ZM27.2762 23.4904C27.2762 25.9693 25.3532 28.4803 21.6753 28.4803C19.5696 28.4803 17.3304 27.1099 16.031 25.7424C15.9962 25.274 15.9962 21.2123 16.0339 20.6886C17.1854 19.5044 18.8764 18.1631 21.7247 18.1631C24.4105 18.1602 27.2762 19.5597 27.2762 23.4904ZM39.2233 15.6406C34.684 15.6406 31.3891 18.8236 31.3891 23.2111C31.3891 27.6743 34.7942 30.9126 39.4843 30.9126C44.0178 30.9126 45.5579 29.2542 46.9183 27.7936L47.4288 27.2466L45.2244 25.6289L44.9517 25.9723C44.1193 27.0139 42.9765 28.4395 39.6961 28.4395C36.3605 28.4395 34.5651 26.2632 34.2257 24.0432H47.655L47.6637 23.4933C47.6637 21.2065 46.9879 19.356 45.6537 17.9915C44.1744 16.4756 41.8917 15.6406 39.2233 15.6406ZM34.365 21.5643C35.0582 19.3066 36.7956 18.1166 39.4089 18.1166C43.2114 18.1166 44.3078 20.5344 44.6008 21.5643H34.365ZM56.0954 28.5239C54.0216 28.5239 53.6155 27.8227 53.6155 26.6153V18.6228H59.0742V17.1535C59.0742 16.6007 58.6275 16.1497 58.0793 16.1497L53.6155 16.1468V12.5594C53.6155 12.0095 53.1659 11.5643 52.6148 11.5643L50.831 11.5672V16.1468H47.9218V18.6228H50.8339V26.8247C50.8339 27.9653 50.8339 30.997 55.6487 30.997C56.5392 30.997 57.6182 30.8399 59.167 30.5984L59.4426 30.5547V28.0264L58.8683 28.1428C57.8067 28.3639 57.041 28.5239 56.0954 28.5239ZM68.5907 21.8349C66.2587 21.5556 64.2458 21.3141 64.2458 20.0543C64.2458 18.393 66.5052 18.1457 67.854 18.1457C70.1773 18.1457 71.9698 18.937 73.1851 20.4936L73.3997 20.7759L75.3227 19.0214L75.1545 18.7858C74.6121 18.0147 72.9559 15.6697 67.8801 15.6697C64.7795 15.6697 61.4671 16.8567 61.4671 20.1881C61.4671 23.5923 65.0782 24.0316 68.2658 24.4186C70.7429 24.7183 72.8805 24.9772 72.8805 26.4523C72.8805 27.9391 70.74 28.4657 68.9068 28.4657C66.4124 28.4657 64.4053 27.5318 62.9464 25.6929L62.7288 25.4165L60.6579 27.3194L60.8638 27.5638C62.8332 29.8681 65.3334 30.9446 68.7241 30.9446C73.1358 30.9446 75.665 29.2513 75.665 26.2952C75.665 22.6816 71.9088 22.2306 68.5907 21.8349ZM84.9059 21.8349C82.5739 21.5556 80.561 21.3141 80.561 20.0543C80.561 18.393 82.8205 18.1457 84.1692 18.1457C86.4925 18.1457 88.285 18.937 89.5003 20.4936L89.7149 20.7759L91.6379 19.0214L91.4668 18.7858C90.9244 18.0147 89.2683 15.6697 84.1924 15.6697C81.0918 15.6697 77.7765 16.8567 77.7765 20.1881C77.7765 23.5923 81.3876 24.0316 84.5753 24.4186C87.0523 24.7183 89.1899 24.9772 89.1899 26.4523C89.1899 27.9391 87.0494 28.4657 85.2163 28.4657C82.7219 28.4657 80.7147 27.5318 79.2558 25.6929L79.0382 25.4165L76.9702 27.3165L77.1761 27.5608C79.1485 29.8652 81.6458 30.9417 85.0364 30.9417C89.4481 30.9417 91.9773 29.2484 91.9773 26.2923C91.9773 22.6816 88.2241 22.2306 84.9059 21.8349ZM101.581 15.6697C96.7979 15.6697 93.3289 18.777 93.3289 23.0569C93.3289 27.9216 96.4934 30.9446 101.581 30.9446C106.657 30.9446 109.809 27.9216 109.809 23.0569C109.809 18.7741 106.349 15.6697 101.581 15.6697ZM107.025 23.3188C107.025 26.4931 104.94 28.4657 101.581 28.4657C98.2569 28.4657 96.1105 26.4465 96.1105 23.3188C96.1105 20.8282 97.8218 18.1457 101.581 18.1457C105.343 18.1457 107.025 20.7439 107.025 23.3188ZM120.002 15.6697C118.096 15.6697 116.312 16.3447 114.558 17.7296V17.0866C114.558 16.5367 114.108 16.0915 113.554 16.0915H111.773V30.5227H114.555V20.7148C115.494 19.7313 117.38 18.1457 119.738 18.1457C120.936 18.1457 121.835 18.4453 122.415 19.036C122.96 19.5917 123.23 20.4296 123.213 21.5265V30.5227H125.994V21.1105C125.997 16.3767 122.241 15.6697 120.002 15.6697Z" fill="white"/>
</g>
</g>
<defs>
<filter id="filter0_d_2040_1866" x="-4" y="0" width="146" height="53" filterUnits="userSpaceOnUse" color-interpolation-filters="sRGB">
<feFlood flood-opacity="0" result="BackgroundImageFix"/>
<feColorMatrix in="SourceAlpha" type="matrix" values="0 0 0 0 0 0 0 0 0 0 0 0 0 0 0 0 0 0 127 0" result="hardAlpha"/>
<feOffset dy="4"/>
<feGaussianBlur stdDeviation="2"/>
<feComposite in2="hardAlpha" operator="out"/>
<feColorMatrix type="matrix" values="0 0 0 0 0 0 0 0 0 0 0 0 0 0 0 0 0 0 0.25 0"/>
<feBlend mode="normal" in2="BackgroundImageFix" result="effect1_dropShadow_2040_1866"/>
<feBlend mode="normal" in="SourceGraphic" in2="effect1_dropShadow_2040_1866" result="shape"/>
</filter>
</defs>
</svg>
