<svg width="138" height="45" viewBox="0 0 138 45" fill="none" xmlns="http://www.w3.org/2000/svg">
<g clip-path="url(#clip0_2040_1865)">
<mask id="mask0_2040_1865" style="mask-type:luminance" maskUnits="userSpaceOnUse" x="13" y="3" width="113" height="39">
<path d="M13 2.99993H126V42H13V2.99993Z" fill="white"/>
</mask>
<g mask="url(#mask0_2040_1865)">
<path d="M28.3468 22.5387C28.3468 24.1083 29.629 25.3806 31.2109 25.3806C32.7929 25.3806 34.0765 24.1083 34.0765 22.5387C34.0765 20.969 32.7929 19.6961 31.2109 19.6961C29.629 19.6961 28.3468 20.969 28.3468 22.5387ZM39.7823 22.4751C39.7877 24.8019 38.8769 26.9928 37.2199 28.6436C35.5583 30.295 33.3536 31.2029 31.01 31.2029H25.5446C25.4281 31.2029 25.3246 31.1562 25.2489 31.0697C25.1754 30.9825 25.142 30.8689 25.1597 30.756C25.3198 29.7502 25.8423 28.8295 26.6313 28.1629C27.4209 27.4978 28.4204 27.1314 29.4471 27.1314H31.01C33.4217 27.1314 35.4649 25.2629 35.6605 22.8774C35.67 22.7536 35.6761 22.6211 35.6761 22.4522C35.6734 22.3555 35.67 22.2663 35.6639 22.1811C35.4949 19.7637 33.4272 17.8716 30.9541 17.8716H29.4471C28.2875 17.8716 27.1974 17.4228 26.3772 16.6095C25.7374 15.9741 25.3055 15.1352 25.1611 14.2483C25.144 14.1307 25.1754 14.0198 25.2476 13.9333C25.3232 13.8461 25.4315 13.7974 25.546 13.7974H30.9221C35.7933 13.7974 39.768 17.6905 39.7823 22.4751ZM61.5694 29.7508L58.5179 24.0353L58.7161 23.9251C59.0833 23.7142 59.4267 23.4574 59.736 23.1646C60.048 22.8692 60.3192 22.5353 60.542 22.1784C60.7668 21.816 60.946 21.4253 61.0707 21.0076C61.1947 20.5972 61.2601 20.1558 61.2601 19.6955C61.2601 19.0188 61.1272 18.3752 60.8663 17.7804C60.6047 17.1855 60.2402 16.6548 59.7851 16.206C59.3279 15.7625 58.7842 15.4029 58.1718 15.144C57.5606 14.8824 56.893 14.7526 56.1919 14.7526H49.2611C49.1283 14.7526 49.02 14.8608 49.02 14.9926V29.8631C49.02 29.9949 49.1283 30.1037 49.2611 30.1037H52.4632C52.5961 30.1037 52.7044 29.9949 52.7044 29.8631V17.5857L55.5944 17.6006C55.8676 17.6411 56.119 17.7297 56.3459 17.8662C56.5694 18.0014 56.7622 18.1691 56.9216 18.3685C57.0797 18.5625 57.2043 18.7835 57.2915 19.0188C57.3787 19.2534 57.4223 19.496 57.4223 19.738C57.4223 19.9875 57.3835 20.2376 57.3045 20.4769C57.2261 20.7155 57.1083 20.9359 56.9557 21.1319C56.8003 21.3287 56.6096 21.4943 56.3847 21.6261C56.1579 21.7586 55.899 21.8424 55.6162 21.8762C55.4922 21.8904 55.3791 21.9005 55.2756 21.9066C55.1754 21.9141 55.0576 21.9195 54.9152 21.9195H54.005C53.8612 21.9195 53.7277 21.9932 53.6527 22.1162C53.5778 22.2412 53.573 22.3893 53.6405 22.517L57.5402 29.9104C57.6036 30.0287 57.7276 30.1037 57.8625 30.1037H61.3561C61.538 30.1037 61.6539 29.9111 61.5694 29.7508ZM73.2345 17.9365C73.3673 17.9365 73.4763 17.8284 73.4763 17.6959V14.9926C73.4763 14.8608 73.3673 14.7526 73.2345 14.7526H64.2005C64.0793 14.7526 64.0404 14.7932 64.0288 14.8107C64.0111 14.827 63.9655 14.8749 63.9655 15.0088V29.8468C63.9655 29.9793 64.0738 30.0861 64.2073 30.0861H73.2072C73.3551 30.0861 73.4763 29.9658 73.4763 29.8205V27.1659C73.4763 27.0192 73.3551 26.9002 73.2072 26.9002H67.6465V23.7142H71.6191C71.7527 23.7142 71.861 23.6054 71.861 23.4743V21.2786C71.861 21.1461 71.7527 21.0387 71.6191 21.0387H67.6465V17.9365H73.2345ZM101.509 14.7357H89.8901C89.7572 14.7357 89.6482 14.8432 89.6482 14.9757V17.6844C89.6482 17.8162 89.7572 17.9243 89.8901 17.9243H93.8463V29.8495C93.8463 29.9807 93.9547 30.0888 94.0882 30.0888H97.2896C97.4231 30.0888 97.5314 29.9807 97.5314 29.8495V17.9243H101.509C101.642 17.9243 101.75 17.8162 101.75 17.6844V14.9757C101.75 14.8432 101.642 14.7357 101.509 14.7357ZM42.0966 14.9926V29.8631C42.0966 29.9956 42.205 30.1037 42.3385 30.1037H45.5406C45.6741 30.1037 45.7818 29.9956 45.7818 29.8631V14.9926C45.7818 14.8601 45.6741 14.7526 45.5406 14.7526H42.3385C42.205 14.7526 42.0966 14.8601 42.0966 14.9926ZM117.821 14.7526H114.438C114.242 14.7526 114.137 14.8242 114.068 15.0047C113.776 15.8105 110.567 25.3238 110.567 25.3238L107.08 14.9973C107.015 14.8242 106.918 14.7526 106.744 14.7526H103.286C103.163 14.7526 103.113 14.858 103.153 14.95L108.869 29.7948C108.941 29.98 109.12 30.1037 109.321 30.1037H111.829C112.029 30.1037 112.208 29.9807 112.28 29.7961L118.027 14.9561C118.027 14.9561 118.111 14.7526 117.821 14.7526ZM86.6812 27.5755C85.9808 26.982 85.0903 26.6555 84.1767 26.6555H82.7835C80.6347 26.6555 78.817 24.9925 78.6446 22.8679C78.6337 22.7489 78.629 22.6232 78.6303 22.4934C78.631 22.4062 78.6358 22.3251 78.6412 22.2473C78.7911 20.097 80.6326 18.4111 82.8353 18.4111H84.1767C85.2096 18.4111 86.1791 18.0122 86.9087 17.2889C87.479 16.7238 87.8632 15.9761 87.9913 15.1832C88.0076 15.0838 87.979 14.9818 87.9129 14.9054C87.8469 14.829 87.7515 14.7844 87.6506 14.7844H82.8618C78.5254 14.7844 74.9868 18.2509 74.9752 22.5116C74.9684 24.5815 75.7798 26.5324 77.2568 28.0027C78.7352 29.473 80.6974 30.2822 82.7835 30.2822H87.6513C87.7528 30.2822 87.8482 30.2389 87.9136 30.1619C87.9797 30.0855 88.0076 29.9841 87.992 29.884C87.8496 28.9883 87.3843 28.1683 86.6812 27.5755Z" fill="white"/>
</g>
</g>
<defs>
<clipPath id="clip0_2040_1865">
<rect width="113" height="39" fill="white" transform="translate(13 3)"/>
</clipPath>
</defs>
</svg>
