<svg width="83" height="47" viewBox="0 0 83 47" fill="none" xmlns="http://www.w3.org/2000/svg">
<path d="M16.8709 30.9381C16.797 30.9139 16.7478 30.8897 16.6739 30.8656C16.3045 30.7446 16.0582 30.4785 15.9597 30.1157C15.935 29.9947 15.935 29.898 15.9104 29.777C15.9104 29.7287 15.9104 29.6561 15.9104 29.6077C15.9104 23.1975 15.9104 16.7873 15.9104 10.4013C15.9104 10.2804 15.9104 10.1352 15.935 10.0143C16.0089 9.48213 16.4769 9.11929 16.9695 9.11929C17.8807 9.11929 18.792 9.11929 19.7033 9.11929C20.2205 9.11929 20.7377 9.5547 20.7377 10.1111C20.7377 10.4981 20.7377 10.8851 20.7377 11.2721C20.7377 11.3447 20.7377 11.3931 20.7377 11.4415C20.787 11.4657 20.787 11.4415 20.8116 11.4173C20.9101 11.2721 21.0086 11.1512 21.1318 11.0061C21.9692 9.99011 23.0528 9.31281 24.3335 8.97415C24.9246 8.82902 25.5404 8.78064 26.1561 8.78064C27.2398 8.80483 28.2742 9.04672 29.2594 9.50632C29.9243 9.82078 30.5401 10.232 31.0819 10.7158C32.0917 11.635 32.7813 12.7477 33.2493 14.0297C33.4463 14.6103 33.5941 15.215 33.6926 15.8439C33.7419 16.2068 33.7911 16.5696 33.7911 16.9325C33.7911 17.1018 33.8157 17.2953 33.8157 17.4646C33.8157 18.3355 33.7419 19.2063 33.5202 20.0771C33.2246 21.2866 32.7321 22.4235 31.9439 23.4152C31.2543 24.286 30.4169 24.9633 29.4318 25.4471C28.7668 25.7616 28.0772 26.0035 27.3629 26.1003C26.9935 26.1486 26.6487 26.197 26.2792 26.197C25.9591 26.2212 25.6389 26.197 25.3433 26.1728C24.8508 26.1244 24.3582 26.0277 23.8656 25.8584C22.8804 25.5197 22.043 24.9875 21.3042 24.2619C21.1564 24.1167 21.0332 23.9716 20.9101 23.8264C20.8855 23.8023 20.8608 23.7539 20.8116 23.7297C20.8116 23.7539 20.787 23.7781 20.787 23.8023C20.787 23.8506 20.787 23.899 20.787 23.9716C20.787 25.9067 20.787 27.8661 20.787 29.8012C20.787 29.9222 20.787 30.0431 20.7377 30.1641C20.6146 30.5269 20.3683 30.7446 20.0235 30.8656C19.9742 30.8897 19.9003 30.8898 19.8511 30.9381C18.8166 30.9381 17.8315 30.9381 16.8709 30.9381ZM20.6638 17.513C20.6638 17.6823 20.6884 17.8517 20.6884 18.021C20.7131 18.5048 20.8116 18.9644 20.984 19.3998C21.2303 20.0771 21.5997 20.6576 22.1416 21.1656C22.8065 21.7703 23.5947 22.109 24.5059 22.1816C24.8508 22.2058 25.1709 22.1816 25.4911 22.1332C26.4516 21.9639 27.2398 21.5043 27.8555 20.7786C28.3481 20.198 28.6436 19.5449 28.816 18.795C28.9638 18.1661 28.9884 17.5372 28.9146 16.9083C28.8653 16.4245 28.7668 15.9649 28.5944 15.5295C28.3481 14.8764 27.9787 14.32 27.4368 13.8604C26.4763 13.0138 25.368 12.6993 24.1119 12.8928C23.3238 13.0138 22.6341 13.3766 22.0677 13.933C21.5505 14.441 21.181 15.0215 20.9594 15.6988C20.7377 16.2794 20.6638 16.8841 20.6638 17.513Z" fill="white"/>
<path d="M69.8727 24.1893C69.8727 24.2135 69.8481 24.2135 69.8481 24.2377C69.8481 24.407 69.7496 24.5521 69.6264 24.6731C69.4786 24.8182 69.3555 24.9634 69.2077 25.0843C68.9861 25.302 68.7644 25.5197 68.5427 25.7374C68.3703 25.9068 68.1733 26.0035 67.927 26.0035C67.7053 26.0035 67.5083 25.9551 67.3359 25.81C67.262 25.7374 67.1881 25.689 67.1389 25.6165C67.0404 25.5197 66.9418 25.3988 66.8187 25.302C66.3754 24.8666 65.9567 24.4554 65.5134 24.02C64.9715 23.4878 64.4297 22.9315 63.8632 22.3993C63.346 21.8913 62.8288 21.3591 62.3116 20.8512C62.2623 20.8028 62.2377 20.7786 62.1884 20.7302C62.1392 20.7544 62.1145 20.7786 62.0899 20.827C61.9175 20.9963 61.7451 21.1898 61.5481 21.3591C61.5234 21.3833 61.5234 21.3833 61.4988 21.4075C60.9324 21.9639 60.3659 22.5444 59.7748 23.1008C59.4546 23.4152 59.1344 23.7297 58.8143 24.0442C58.4941 24.3586 58.1985 24.6731 57.8783 24.9634C57.6074 25.2294 57.3365 25.4955 57.0656 25.7616C56.9178 25.9068 56.77 25.9793 56.5484 26.0035C56.3021 26.0277 56.0804 25.9793 55.908 25.8342C55.8341 25.7858 55.7602 25.7132 55.711 25.6649C55.4154 25.3504 55.0953 25.0601 54.7997 24.7457C54.7505 24.6973 54.7012 24.6489 54.6519 24.5763C54.381 24.2619 54.381 23.8023 54.6273 23.4878C54.6519 23.4636 54.6766 23.4152 54.7012 23.3911C54.9229 23.1733 55.1445 22.9315 55.3908 22.7138C55.8095 22.3025 56.2528 21.8671 56.6715 21.4559C57.238 20.8995 57.7798 20.3674 58.3463 19.811C58.8881 19.2547 59.4546 18.7225 59.9964 18.1661C60.3166 17.8517 60.6368 17.513 60.957 17.1986C61.1048 17.0534 61.2772 16.9083 61.4496 16.8115C62.0407 16.5213 62.7795 16.6422 63.2229 17.0776C63.814 17.6582 64.4051 18.2387 64.9961 18.8434C65.2671 19.1095 65.5134 19.3756 65.7843 19.6175C66.4493 20.2706 67.0896 20.9237 67.7546 21.5768C68.0502 21.8671 68.3457 22.1574 68.6413 22.4477C68.9368 22.7621 69.257 23.0524 69.5525 23.3669C69.6018 23.4152 69.651 23.4878 69.7003 23.5362C69.7496 23.6088 69.7988 23.7055 69.8234 23.8023C69.8234 23.8265 69.8481 23.8507 69.8481 23.899C69.8727 24.02 69.8727 24.0925 69.8727 24.1893Z" fill="white"/>
<path d="M69.8727 11.1755C69.8727 11.1997 69.848 11.248 69.848 11.2722C69.848 11.4416 69.7495 11.5625 69.651 11.6835C69.6017 11.7318 69.5525 11.8044 69.4786 11.8528C69.0599 12.264 68.6658 12.651 68.2471 13.0623C67.6068 13.6912 66.9664 14.3201 66.3261 14.9732C65.9566 15.3361 65.5872 15.6989 65.2178 16.0617C65.0207 16.2553 64.8237 16.4488 64.6267 16.6423C64.602 16.6665 64.5528 16.6907 64.5281 16.739C64.4789 16.7148 64.4543 16.6665 64.4296 16.6423C64.1833 16.4004 63.9371 16.1585 63.6908 15.9166C63.3706 15.6263 63.0258 15.4086 62.5825 15.3361C61.9667 15.2151 61.4249 15.3361 60.9077 15.6747C60.7845 15.7715 60.6614 15.8682 60.5382 15.9892C60.2919 16.2311 60.0457 16.473 59.7994 16.7148C59.7747 16.739 59.7747 16.739 59.7501 16.7632C59.7255 16.739 59.6762 16.7148 59.6516 16.6907C59.159 16.1827 58.6418 15.6989 58.1492 15.1909C57.9768 15.0216 57.8044 14.8281 57.6074 14.6588C57.1641 14.2233 56.7207 13.7879 56.2774 13.3283C55.7602 12.8204 55.2184 12.2882 54.7011 11.7802C54.5534 11.6351 54.4549 11.4657 54.4302 11.2722C54.381 11.0303 54.4549 10.8126 54.578 10.6191C54.6026 10.5707 54.6519 10.5224 54.7011 10.474C55.0706 10.1111 55.44 9.7483 55.8095 9.38546C55.9326 9.26452 56.0804 9.19195 56.2528 9.16776C56.5483 9.11938 56.8192 9.19195 57.0409 9.38546C57.1641 9.50641 57.2872 9.62736 57.4103 9.7483C57.5089 9.84506 57.5827 9.94182 57.6813 10.0144C58.3216 10.6433 58.9373 11.2722 59.5777 11.877C59.9471 12.2398 60.3166 12.6027 60.686 12.9655C61.0554 13.3283 61.4249 13.6912 61.7943 14.054C61.8928 14.1508 61.9914 14.2475 62.0652 14.3443C62.0899 14.3685 62.1145 14.3927 62.1638 14.4169C62.1884 14.3927 62.213 14.3685 62.2376 14.3443C62.5578 14.0298 62.8534 13.7396 63.1735 13.4251C63.5676 13.0381 63.9371 12.651 64.3311 12.2882C64.6759 11.9495 64.9961 11.6109 65.3409 11.2964C65.735 10.9094 66.1537 10.4982 66.5477 10.1111C66.794 9.86925 67.0157 9.65155 67.262 9.40965C67.4098 9.26452 67.5575 9.19195 67.7546 9.16776C68.0008 9.11938 68.2225 9.19195 68.4195 9.33708C68.4688 9.36127 68.5181 9.40965 68.5427 9.45803C68.8875 9.82087 69.2569 10.1595 69.6017 10.5224C69.651 10.5707 69.7003 10.6433 69.7495 10.7159C69.7988 10.7884 69.8234 10.8852 69.848 10.9578C69.848 10.982 69.8727 11.0303 69.8727 11.0545C69.8727 11.0545 69.8727 11.1029 69.8727 11.1755Z" fill="white"/>
<path d="M46.9431 24.1168C46.8939 24.1651 46.8692 24.1893 46.8446 24.2135C46.352 24.7215 45.8102 25.1327 45.1945 25.4714C44.5541 25.81 43.8645 26.0519 43.1502 26.1487C42.6577 26.2212 42.1651 26.2454 41.6479 26.2212C41.5247 26.2212 41.377 26.2212 41.2538 26.1971C40.1948 26.1245 39.185 25.8584 38.2737 25.302C37.1407 24.6006 36.4265 23.633 36.131 22.3509C36.0571 21.9881 36.0078 21.6253 36.0078 21.2382C36.0078 20.8996 36.0078 20.5609 36.0571 20.2223C36.1802 19.1821 36.5743 18.2387 37.3132 17.4889C37.7565 17.0293 38.2737 16.6906 38.8402 16.4245C39.4313 16.1343 40.047 15.9649 40.712 15.844C41.1799 15.7472 41.6479 15.6989 42.1405 15.6747C42.5592 15.6505 42.9778 15.6505 43.3965 15.6747C44.5787 15.723 45.7117 15.9166 46.82 16.3036C46.8692 16.3278 46.9185 16.3278 46.9678 16.352C46.9678 16.3278 46.9924 16.3036 46.9924 16.2794C46.9924 15.8682 46.9678 15.4812 46.8692 15.0699C46.6476 14.2475 46.1057 13.667 45.293 13.3525C44.9728 13.2315 44.6526 13.159 44.3078 13.0864C43.8152 13.0138 43.3226 13.0138 42.8301 13.0138C42.4853 13.0138 42.1158 13.038 41.771 13.0864C41.2046 13.159 40.6627 13.2557 40.1209 13.4009C39.9731 13.4492 39.8007 13.4976 39.6529 13.546C39.2342 13.6428 38.8894 13.5702 38.5692 13.2799C38.4461 13.159 38.3722 13.038 38.3229 12.8929C38.1505 12.4091 37.9781 11.9253 37.8057 11.4173C37.7565 11.2964 37.7319 11.1996 37.7072 11.0787C37.6087 10.5949 37.8796 10.1111 38.3476 9.91759C38.5939 9.82084 38.8648 9.72408 39.1111 9.65151C39.8253 9.43381 40.5396 9.26448 41.2538 9.14353C41.6971 9.07096 42.1651 9.02259 42.6084 8.97421C43.1995 8.92583 43.8152 8.95002 44.4063 8.95002C44.7758 8.95002 45.1206 8.97421 45.49 9.02259C46.4013 9.11934 47.3126 9.33705 48.15 9.72408C49.2829 10.2562 50.1203 11.0787 50.6867 12.1672C51.0316 12.8203 51.2532 13.5218 51.401 14.2475C51.5241 14.8764 51.5734 15.4812 51.5734 16.1101C51.5734 19.0128 51.5734 21.9155 51.5734 24.8425C51.5734 24.9392 51.5734 25.036 51.5488 25.1327C51.4502 25.5681 51.0562 25.9068 50.5636 25.9068C50.3666 25.9068 50.1942 25.9068 49.9971 25.9068C49.3321 25.9068 48.6672 25.9068 48.0022 25.9068C47.5835 25.9068 47.2633 25.7133 47.0663 25.3504C46.9924 25.2053 46.9431 25.0602 46.9431 24.8908C46.9431 24.6731 46.9431 24.4554 46.9431 24.2377C46.9431 24.2135 46.9431 24.1893 46.9431 24.1168ZM47.0416 19.1579C46.9924 19.1338 46.9431 19.1096 46.9185 19.1096C46.0811 18.7709 45.2437 18.6016 44.3324 18.5532C44.0369 18.529 43.7167 18.5532 43.4212 18.5774C43.0764 18.6016 42.7316 18.65 42.4114 18.7467C42.0419 18.8435 41.6971 19.0128 41.377 19.2547C41.0321 19.5208 40.7859 19.8594 40.6873 20.2948C40.6135 20.5851 40.5888 20.8754 40.6134 21.1899C40.6381 21.4801 40.7366 21.7462 40.8844 21.9639C41.106 22.3026 41.4016 22.5203 41.7464 22.6896C42.1158 22.8589 42.5345 22.9557 42.9532 22.9799C43.4704 23.0041 43.963 22.9799 44.4802 22.8589C44.8989 22.7622 45.3176 22.617 45.687 22.3751C46.5244 21.8672 46.9678 21.1173 47.017 20.1497C47.017 20.1255 47.017 20.0771 47.017 20.053C47.0416 19.9804 47.0416 19.9078 47.0416 19.8352C47.0416 19.6659 47.0416 19.5208 47.0416 19.3515C47.0416 19.2789 47.0416 19.2063 47.0416 19.1579Z" fill="white"/>
<path d="M62.1639 7.59541C63.3707 7.57123 64.3805 8.5388 64.3805 9.77246C64.3805 11.0061 63.3707 11.9495 62.1639 11.9495C60.9571 11.9495 59.9473 10.9819 59.9473 9.77246C59.9473 8.56299 60.9324 7.57123 62.1639 7.59541Z" fill="white"/>
<path d="M20.7376 33.5265C20.8115 33.5991 20.8607 33.72 20.8607 33.841V37.7355C20.8607 37.8564 20.8115 37.9532 20.7376 38.0499C20.6637 38.1225 20.5406 38.1709 20.4174 38.1709C20.2943 38.1709 20.1958 38.1225 20.0972 38.0499C20.0233 37.9774 19.9741 37.8564 19.9741 37.7355V37.4936C19.8263 37.7113 19.6047 37.8806 19.3337 38.0257C19.0628 38.1709 18.7673 38.2434 18.4471 38.2434C18.0284 38.2434 17.659 38.1467 17.3141 37.929C16.9693 37.7113 16.723 37.421 16.526 37.0582C16.329 36.6953 16.2305 36.2599 16.2305 35.8003C16.2305 35.3407 16.329 34.9053 16.526 34.5425C16.723 34.1796 16.9693 33.8893 17.3141 33.6716C17.659 33.4539 18.0284 33.3572 18.4225 33.3572C18.7426 33.3572 19.0382 33.4297 19.3337 33.5507C19.6047 33.6716 19.8263 33.841 19.9987 34.0587V33.8652C19.9987 33.7442 20.048 33.6233 20.1219 33.5507C20.1957 33.4781 20.2943 33.4297 20.442 33.4297C20.5898 33.4297 20.6637 33.4539 20.7376 33.5265ZM19.3337 37.2759C19.5554 37.1307 19.7278 36.9372 19.8509 36.6953C19.9741 36.4534 20.048 36.1631 20.048 35.8487C20.048 35.5342 19.9741 35.2681 19.8509 35.0021C19.7278 34.7602 19.5554 34.5425 19.3337 34.3973C19.1121 34.2522 18.8658 34.1796 18.5702 34.1796C18.2747 34.1796 18.0284 34.2522 17.8067 34.3973C17.5851 34.5425 17.4127 34.736 17.2895 34.9779C17.1664 35.2198 17.0925 35.51 17.0925 35.8245C17.0925 36.139 17.1664 36.4292 17.2895 36.6711C17.4127 36.913 17.5851 37.1307 17.8067 37.2517C18.0284 37.3968 18.2747 37.4694 18.5702 37.4694C18.8412 37.4694 19.1121 37.3968 19.3337 37.2759Z" fill="white"/>
<path d="M22.708 37.2033C22.708 37.0823 22.7819 36.9856 22.905 36.8888C22.9543 36.8405 23.0282 36.8163 23.1267 36.8163C23.2252 36.8163 23.3484 36.8646 23.4223 36.9614C23.5947 37.1549 23.7917 37.3242 24.0134 37.421C24.235 37.5178 24.4813 37.5661 24.7769 37.5661C24.9985 37.5661 25.2202 37.5178 25.3926 37.421C25.565 37.3242 25.6635 37.1549 25.6635 36.9372C25.6635 36.7437 25.565 36.5744 25.3926 36.4776C25.2202 36.3809 24.9493 36.2599 24.6044 36.1873C24.2596 36.0906 23.9887 35.9938 23.7671 35.8971C23.5454 35.8003 23.3484 35.6552 23.2006 35.4617C23.0528 35.2681 22.9789 35.0262 22.9789 34.7118C22.9789 34.4457 23.0528 34.2038 23.2006 34.0103C23.3484 33.8168 23.57 33.6475 23.8163 33.5265C24.0872 33.4056 24.3582 33.3572 24.6537 33.3572C24.9493 33.3572 25.2448 33.4056 25.5157 33.5265C25.8113 33.6233 26.0329 33.7926 26.23 34.0103C26.3039 34.0829 26.3285 34.1796 26.3285 34.2764C26.3285 34.3731 26.2792 34.4699 26.1807 34.5425C26.1315 34.5908 26.0329 34.615 25.959 34.615C25.8605 34.615 25.762 34.5908 25.6881 34.5183C25.565 34.3731 25.3926 34.2522 25.2202 34.1796C25.0231 34.1071 24.8261 34.0587 24.6044 34.0587C24.3828 34.0587 24.1858 34.107 24.0134 34.2038C23.8409 34.3006 23.7671 34.4457 23.7671 34.6634C23.7671 34.8811 23.8656 35.0262 24.038 35.123C24.2104 35.2198 24.4813 35.3165 24.8754 35.4133C25.1955 35.4858 25.4665 35.5826 25.6881 35.6794C25.9098 35.7761 26.0822 35.9213 26.23 36.1148C26.3777 36.3083 26.4516 36.5502 26.4516 36.8646C26.4516 37.1549 26.3777 37.3968 26.2053 37.5903C26.0329 37.7838 25.8359 37.9532 25.565 38.0741C25.2941 38.1951 25.0231 38.2434 24.7276 38.2434C24.3335 38.2434 23.9887 38.1709 23.6685 38.0499C23.3484 37.929 23.0774 37.7113 22.8312 37.421C22.7326 37.3484 22.708 37.2759 22.708 37.2033Z" fill="white"/>
<path d="M27.9785 37.2033C27.9785 37.0823 28.0524 36.9856 28.1755 36.8888C28.2248 36.8405 28.2987 36.8163 28.3972 36.8163C28.4957 36.8163 28.6189 36.8646 28.6928 36.9614C28.8652 37.1549 29.0622 37.3242 29.2839 37.421C29.5055 37.5178 29.7518 37.5661 30.0474 37.5661C30.269 37.5661 30.4907 37.5178 30.6631 37.421C30.8355 37.3242 30.934 37.1549 30.934 36.9372C30.934 36.7437 30.8355 36.5744 30.6631 36.4776C30.4907 36.3809 30.2198 36.2599 29.875 36.1873C29.5301 36.0906 29.2592 35.9938 29.0376 35.8971C28.8159 35.8003 28.6189 35.6552 28.4711 35.4617C28.3233 35.2681 28.2494 35.0262 28.2494 34.7118C28.2494 34.4457 28.3233 34.2038 28.4711 34.0103C28.6189 33.8168 28.8405 33.6475 29.0868 33.5265C29.3577 33.4056 29.6287 33.3572 29.9242 33.3572C30.2198 33.3572 30.5153 33.4056 30.7862 33.5265C31.0818 33.6233 31.3034 33.7926 31.5005 34.0103C31.5744 34.0829 31.599 34.1796 31.599 34.2764C31.599 34.3731 31.5497 34.4699 31.4512 34.5425C31.402 34.5908 31.3034 34.615 31.2296 34.615C31.131 34.615 31.0325 34.5908 30.9586 34.5183C30.8355 34.3731 30.6631 34.2522 30.4907 34.1796C30.2937 34.1071 30.0966 34.0587 29.875 34.0587C29.6533 34.0587 29.4563 34.107 29.2839 34.2038C29.1115 34.3006 29.0376 34.4457 29.0376 34.6634C29.0376 34.8811 29.1361 35.0262 29.3085 35.123C29.4809 35.2198 29.7518 35.3165 30.1459 35.4133C30.4661 35.4858 30.737 35.5826 30.9586 35.6794C31.1803 35.7761 31.3527 35.9213 31.5005 36.1148C31.6482 36.3083 31.7221 36.5502 31.7221 36.8646C31.7221 37.1549 31.6483 37.3968 31.4758 37.5903C31.3034 37.808 31.1064 37.9532 30.8355 38.0741C30.5646 38.1951 30.2937 38.2434 29.9981 38.2434C29.604 38.2434 29.2592 38.1709 28.9391 38.0499C28.6189 37.929 28.348 37.7113 28.1017 37.421C28.0031 37.3484 27.9785 37.2759 27.9785 37.2033Z" fill="white"/>
<path d="M33.6185 32.7524C33.5446 32.6798 33.4954 32.5831 33.4954 32.4621V32.317C33.4954 32.1718 33.5446 32.0751 33.6185 32.0025C33.6924 31.9541 33.8155 31.9058 33.9879 31.9058C34.1603 31.9058 34.2835 31.93 34.3574 32.0025C34.4313 32.0751 34.4805 32.1718 34.4805 32.2928V32.4379C34.4805 32.5831 34.4313 32.6798 34.3574 32.7524C34.2835 32.8008 34.1603 32.8492 33.9879 32.8492C33.8155 32.8492 33.6924 32.8008 33.6185 32.7524ZM34.3081 38.0499C34.2342 38.1224 34.1111 38.1708 33.9879 38.1708C33.8648 38.1708 33.7663 38.1224 33.6924 38.0499C33.6185 37.9773 33.5692 37.8564 33.5692 37.7354V33.8651C33.5692 33.7442 33.6185 33.6474 33.6924 33.5506C33.7663 33.4781 33.8648 33.4297 33.9879 33.4297C34.1111 33.4297 34.2096 33.4781 34.3081 33.5506C34.382 33.6232 34.4313 33.7442 34.4313 33.8651V37.7596C34.4313 37.8805 34.382 37.9773 34.3081 38.0499Z" fill="white"/>
<path d="M36.2292 37.2033C36.2292 37.0823 36.3031 36.9856 36.4263 36.8888C36.4755 36.8405 36.5494 36.8163 36.6479 36.8163C36.7465 36.8163 36.8696 36.8646 36.9435 36.9614C37.1159 37.1549 37.3129 37.3242 37.5346 37.421C37.7562 37.5178 38.0025 37.5661 38.2981 37.5661C38.5198 37.5661 38.7414 37.5178 38.9138 37.421C39.0862 37.3242 39.1847 37.1549 39.1847 36.9372C39.1847 36.7437 39.0862 36.5744 38.9138 36.4776C38.7414 36.3809 38.4705 36.2599 38.1257 36.1873C37.7809 36.0906 37.51 35.9938 37.2883 35.8971C37.0666 35.8003 36.8696 35.6552 36.7218 35.4617C36.5741 35.2681 36.5002 35.0262 36.5002 34.7118C36.5002 34.4457 36.5741 34.2038 36.7218 34.0103C36.8696 33.8168 37.0913 33.6475 37.3376 33.5265C37.6085 33.4056 37.8794 33.3572 38.1749 33.3572C38.4705 33.3572 38.766 33.4056 39.037 33.5265C39.3325 33.6233 39.5542 33.7926 39.7512 34.0103C39.8251 34.0829 39.8497 34.1796 39.8497 34.2764C39.8497 34.3731 39.8005 34.4699 39.7019 34.5425C39.6527 34.5908 39.5542 34.615 39.4803 34.615C39.3818 34.615 39.2833 34.5908 39.2094 34.5183C39.0862 34.3731 38.9138 34.2522 38.7414 34.1796C38.5444 34.1071 38.3473 34.0587 38.1257 34.0587C37.904 34.0587 37.707 34.107 37.5346 34.2038C37.3622 34.3006 37.2883 34.4457 37.2883 34.6634C37.2883 34.8811 37.3868 35.0262 37.5592 35.123C37.7316 35.2198 38.0025 35.3165 38.3966 35.4133C38.7168 35.4858 38.9877 35.5826 39.2094 35.6794C39.431 35.7761 39.6034 35.9213 39.7512 36.1148C39.899 36.3083 39.9729 36.5502 39.9729 36.8646C39.9729 37.1549 39.899 37.3968 39.7266 37.5903C39.5542 37.808 39.3571 37.9532 39.0862 38.0741C38.8153 38.1951 38.5444 38.2434 38.2488 38.2434C37.8548 38.2434 37.51 38.1709 37.1898 38.0499C36.8696 37.929 36.5987 37.7113 36.3524 37.421C36.2539 37.3484 36.2292 37.2759 36.2292 37.2033Z" fill="white"/>
<path d="M43.1499 34.3247V36.9855C43.1499 37.2758 43.2977 37.4451 43.5686 37.4451C43.6179 37.4451 43.6672 37.4451 43.741 37.4209C43.8149 37.3967 43.8642 37.3968 43.9134 37.3968C43.9873 37.3968 44.0612 37.4209 44.1105 37.4935C44.1597 37.5661 44.1844 37.6386 44.1844 37.7354C44.1844 37.8563 44.1105 37.9773 43.9627 38.0499C43.8149 38.1466 43.6425 38.195 43.4701 38.195C43.2731 38.195 43.0761 38.1708 42.9283 38.1224C42.7559 38.0741 42.6081 37.9773 42.485 37.808C42.3618 37.6386 42.2879 37.3726 42.2879 37.0339V34.3247H41.7461C41.6229 34.3247 41.5244 34.2763 41.4505 34.2037C41.3767 34.1312 41.3274 34.0344 41.3274 33.9135C41.3274 33.7925 41.3767 33.6958 41.4505 33.6474C41.5244 33.5748 41.6229 33.5506 41.7461 33.5506H42.2879V32.8008C42.2879 32.6798 42.3372 32.5831 42.4111 32.4863C42.485 32.4137 42.6081 32.3654 42.7312 32.3654C42.8544 32.3654 42.9529 32.4137 43.0268 32.4863C43.1007 32.5589 43.1499 32.6798 43.1499 32.8008V33.5506H43.9134C44.0366 33.5506 44.1351 33.599 44.209 33.6716C44.2829 33.7442 44.3321 33.8409 44.3321 33.9619C44.3321 34.0828 44.2829 34.1796 44.209 34.2279C44.1351 34.3005 44.0366 34.3247 43.9134 34.3247H43.1499Z" fill="white"/>
<path d="M50.4402 33.5265C50.5141 33.5991 50.5634 33.72 50.5634 33.841V37.7355C50.5634 37.8564 50.5141 37.9532 50.4402 38.0499C50.3663 38.1225 50.2432 38.1709 50.12 38.1709C49.9969 38.1709 49.8984 38.1225 49.7999 38.0499C49.726 37.9774 49.6767 37.8564 49.6767 37.7355V37.4936C49.529 37.7113 49.3073 37.8806 49.0364 38.0257C48.7655 38.1709 48.4699 38.2434 48.1497 38.2434C47.731 38.2434 47.3616 38.1467 47.0168 37.929C46.672 37.7113 46.4257 37.421 46.2287 37.0582C46.0316 36.6953 45.9331 36.2599 45.9331 35.8003C45.9331 35.3407 46.0316 34.9053 46.2287 34.5425C46.4257 34.1796 46.672 33.8893 47.0168 33.6716C47.3616 33.4539 47.731 33.3572 48.1251 33.3572C48.4453 33.3572 48.7408 33.4297 49.0364 33.5507C49.3073 33.6716 49.529 33.841 49.7014 34.0587V33.8652C49.7014 33.7442 49.7506 33.6233 49.8245 33.5507C49.8984 33.4781 49.9969 33.4297 50.1447 33.4297C50.2432 33.4056 50.3663 33.4539 50.4402 33.5265ZM49.0117 37.2759C49.2334 37.1307 49.4058 36.9372 49.529 36.6953C49.6521 36.4534 49.726 36.1631 49.726 35.8487C49.726 35.5342 49.6521 35.2681 49.529 35.0021C49.4058 34.7602 49.2334 34.5425 49.0117 34.3973C48.7901 34.2522 48.5438 34.1796 48.2482 34.1796C47.9527 34.1796 47.7064 34.2522 47.4847 34.3973C47.2631 34.5425 47.0907 34.736 46.9675 34.9779C46.8444 35.2198 46.7705 35.51 46.7705 35.8245C46.7705 36.139 46.8444 36.4292 46.9675 36.6711C47.0907 36.913 47.2631 37.1307 47.4847 37.2517C47.7064 37.3968 47.9527 37.4694 48.2482 37.4694C48.5438 37.4694 48.7901 37.3968 49.0117 37.2759Z" fill="white"/>
<path d="M56.8438 35.3165V37.7597C56.8438 37.8806 56.7945 37.9774 56.7206 38.0741C56.6467 38.1467 56.5236 38.1951 56.4004 38.1951C56.2773 38.1951 56.1788 38.1467 56.1049 38.0741C56.031 38.0015 55.9818 37.8806 55.9818 37.7597V35.3407C55.9818 34.9779 55.9079 34.7118 55.7355 34.4941C55.5631 34.2764 55.2921 34.1796 54.9227 34.1796C54.6764 34.1796 54.4547 34.228 54.2577 34.3248C54.0607 34.4215 53.9129 34.5667 53.7898 34.736C53.6666 34.9053 53.6174 35.0988 53.6174 35.3165V37.7355C53.6174 37.8564 53.5681 37.9532 53.4942 38.0499C53.4203 38.1225 53.2972 38.1709 53.174 38.1709C53.0509 38.1709 52.9524 38.1225 52.8539 38.0499C52.78 37.9774 52.7307 37.8564 52.7307 37.7355V33.8893C52.7307 33.7684 52.78 33.6716 52.8539 33.5749C52.9277 33.5023 53.0263 33.4539 53.1494 33.4539C53.2726 33.4539 53.3711 33.5023 53.4696 33.5749C53.5435 33.6475 53.5927 33.7684 53.5927 33.8893V34.2038C53.7405 33.9619 53.9622 33.7684 54.2577 33.5991C54.5286 33.4297 54.8488 33.3572 55.169 33.3572C56.3019 33.3814 56.8438 34.0103 56.8438 35.3165Z" fill="white"/>
<path d="M62.3361 33.599C62.6562 33.7441 62.804 33.9376 62.804 34.1795C62.804 34.2763 62.7794 34.373 62.7055 34.4456C62.6316 34.5182 62.5577 34.5666 62.4592 34.5666C62.3853 34.5666 62.3114 34.5666 62.2622 34.5424C62.2129 34.5182 62.1636 34.4698 62.0651 34.4214C62.0405 34.3972 61.9666 34.3488 61.8927 34.3005C61.8188 34.2763 61.7203 34.2279 61.5726 34.2037C61.4494 34.1795 61.3263 34.1795 61.2031 34.1795C60.8829 34.1795 60.612 34.2521 60.3657 34.3972C60.1194 34.5424 59.9224 34.7359 59.7993 35.002C59.6761 35.268 59.6022 35.5341 59.6022 35.8486C59.6022 36.1631 59.6761 36.4533 59.7993 36.6952C59.9224 36.9371 60.1194 37.1548 60.3411 37.2758C60.5874 37.4209 60.8583 37.4935 61.1539 37.4935C61.474 37.4935 61.7203 37.4451 61.9174 37.3483C61.9666 37.3241 62.0159 37.2758 62.0898 37.2274C62.139 37.179 62.2129 37.1548 62.2375 37.1306C62.2868 37.1064 62.3361 37.1064 62.4099 37.1064C62.5331 37.1064 62.6316 37.1548 62.7055 37.2274C62.7794 37.3 62.804 37.3967 62.804 37.5177C62.804 37.6386 62.7301 37.7596 62.5577 37.8805C62.3853 38.0014 62.1883 38.0982 61.9174 38.1708C61.6464 38.2433 61.3509 38.2917 61.0553 38.2917C60.5874 38.2917 60.1933 38.195 59.8239 37.9773C59.4791 37.7596 59.2082 37.4693 59.0111 37.1064C58.8141 36.7436 58.7156 36.3082 58.7156 35.8486C58.7156 35.389 58.8141 34.9778 59.0111 34.5907C59.2082 34.2279 59.5037 33.9134 59.8485 33.7199C60.218 33.5022 60.612 33.4055 61.08 33.4055C61.6218 33.3813 62.0159 33.4538 62.3361 33.599Z" fill="white"/>
<path d="M68.7151 35.9212C68.6412 35.9937 68.5181 36.0421 68.4196 36.0421H65.1932C65.2424 36.4775 65.4148 36.8403 65.7104 37.0822C66.0059 37.3483 66.3754 37.4693 66.7941 37.4693C67.0896 37.4693 67.3359 37.4209 67.5083 37.3483C67.6807 37.2758 67.8531 37.1548 68.0009 37.0339C68.0994 36.9855 68.1733 36.9613 68.2718 36.9613C68.3703 36.9613 68.4688 36.9855 68.5427 37.0581C68.6166 37.1306 68.6412 37.2032 68.6412 37.2999C68.6412 37.4209 68.592 37.5418 68.4688 37.6386C68.2964 37.8079 68.0501 37.9531 67.7546 38.074C67.459 38.195 67.1635 38.2433 66.8679 38.2433C66.3754 38.2433 65.932 38.1466 65.5626 37.9289C65.1932 37.7354 64.8976 37.4451 64.7006 37.0822C64.5035 36.7194 64.405 36.3082 64.405 35.8486C64.405 35.3406 64.5035 34.9052 64.7252 34.5182C64.9469 34.1311 65.2178 33.8409 65.5626 33.6473C65.9074 33.4538 66.2768 33.3329 66.6709 33.3329C67.065 33.3329 67.4344 33.4296 67.7546 33.6232C68.0994 33.8167 68.3703 34.0828 68.5673 34.4456C68.7644 34.7842 68.8875 35.1713 68.8875 35.6067C68.8629 35.7518 68.8136 35.8486 68.7151 35.9212ZM65.735 34.4456C65.4887 34.6391 65.3163 34.9294 65.2424 35.3164H67.927V35.2438C67.9024 34.9294 67.7546 34.6633 67.4837 34.4698C67.2127 34.2763 66.9418 34.1553 66.597 34.1553C66.2768 34.1553 65.9813 34.2521 65.735 34.4456Z" fill="white"/>
</svg>
